<mxfile host="app.diagrams.net" modified="2023-08-03T08:44:32.636Z" agent="Mozilla/5.0 (Windows NT 10.0; Win64; x64) AppleWebKit/537.36 (KHTML, like Gecko) Chrome/115.0.0.0 Safari/537.36" etag="kS0_JVHHatfPsvkyTGJQ" version="21.6.6" type="github">
  <diagram name="페이지-1" id="tYuTC0g_JtJMIlODlGY_">
    <mxGraphModel dx="2074" dy="1142" grid="1" gridSize="10" guides="1" tooltips="1" connect="1" arrows="1" fold="1" page="1" pageScale="1" pageWidth="827" pageHeight="1169" math="0" shadow="0">
      <root>
        <mxCell id="0" />
        <mxCell id="1" parent="0" />
        <mxCell id="RUlDnIiTWdbKFg5DgWMq-1" value="나 ( = 혜진)&amp;nbsp;" style="shape=umlActor;verticalLabelPosition=bottom;verticalAlign=top;html=1;" parent="1" vertex="1">
          <mxGeometry x="40" y="702.8000000000002" width="60" height="97.5" as="geometry" />
        </mxCell>
        <mxCell id="RUlDnIiTWdbKFg5DgWMq-2" value="&lt;font style=&quot;font-size: 11px;&quot;&gt;혼자 공원에 간다&amp;nbsp;&lt;br&gt;&lt;/font&gt;" style="ellipse;whiteSpace=wrap;html=1;fillColor=#FAF6F0;gradientColor=#FAF6F0;strokeColor=default;" parent="1" vertex="1">
          <mxGeometry x="140" y="520" width="100" height="50" as="geometry" />
        </mxCell>
        <mxCell id="RUlDnIiTWdbKFg5DgWMq-13" value="&lt;span style=&quot;color: rgb(255, 41, 8); font-family: Helvetica; font-size: 12px; font-style: normal; font-variant-ligatures: normal; font-variant-caps: normal; font-weight: 400; letter-spacing: normal; orphans: 2; text-align: left; text-indent: 0px; text-transform: none; widows: 2; word-spacing: 0px; -webkit-text-stroke-width: 0px; background-color: rgb(251, 251, 251); text-decoration-thickness: initial; text-decoration-style: initial; text-decoration-color: initial; float: none; display: inline !important;&quot;&gt;&amp;nbsp; &amp;nbsp; 주제&amp;nbsp; :&amp;nbsp; 천호공원에서 산책하고 운동한다&lt;/span&gt;" style="text;whiteSpace=wrap;html=1;fillColor=#f5f5f5;fontColor=#333333;strokeColor=#666666;" parent="1" vertex="1">
          <mxGeometry x="40" y="59.99999999999994" width="280" height="25" as="geometry" />
        </mxCell>
        <mxCell id="RUlDnIiTWdbKFg5DgWMq-14" value="&lt;font style=&quot;font-size: 11px;&quot;&gt;다른 사람과 산책한다&amp;nbsp;&lt;br&gt;&lt;/font&gt;" style="ellipse;whiteSpace=wrap;html=1;fillColor=#FAF6F0;gradientColor=#FAF6F0;strokeColor=default;" parent="1" vertex="1">
          <mxGeometry x="140" y="1030" width="150" height="50" as="geometry" />
        </mxCell>
        <mxCell id="RUlDnIiTWdbKFg5DgWMq-16" value="개를 발견한다" style="ellipse;whiteSpace=wrap;html=1;" parent="1" vertex="1">
          <mxGeometry x="270" y="653.0700000000002" width="90" height="53.37" as="geometry" />
        </mxCell>
        <mxCell id="RUlDnIiTWdbKFg5DgWMq-59" value="" style="edgeStyle=orthogonalEdgeStyle;rounded=0;orthogonalLoop=1;jettySize=auto;html=1;" parent="1" source="RUlDnIiTWdbKFg5DgWMq-17" target="RUlDnIiTWdbKFg5DgWMq-57" edge="1">
          <mxGeometry relative="1" as="geometry" />
        </mxCell>
        <mxCell id="RUlDnIiTWdbKFg5DgWMq-17" value="트랙을 걷는다" style="ellipse;whiteSpace=wrap;html=1;" parent="1" vertex="1">
          <mxGeometry x="478.5" y="410" width="100" height="50" as="geometry" />
        </mxCell>
        <mxCell id="RUlDnIiTWdbKFg5DgWMq-42" value="" style="edgeStyle=orthogonalEdgeStyle;rounded=0;orthogonalLoop=1;jettySize=auto;html=1;" parent="1" source="RUlDnIiTWdbKFg5DgWMq-18" target="RUlDnIiTWdbKFg5DgWMq-17" edge="1">
          <mxGeometry relative="1" as="geometry" />
        </mxCell>
        <mxCell id="RUlDnIiTWdbKFg5DgWMq-18" value="트랙을 발견한다" style="ellipse;whiteSpace=wrap;html=1;" parent="1" vertex="1">
          <mxGeometry x="358.5" y="410" width="100" height="50" as="geometry" />
        </mxCell>
        <mxCell id="RUlDnIiTWdbKFg5DgWMq-19" value="개 주인에게&amp;nbsp;&lt;br&gt;말을 건다" style="ellipse;whiteSpace=wrap;html=1;" parent="1" vertex="1">
          <mxGeometry x="390" y="653.0700000000002" width="90" height="53.37" as="geometry" />
        </mxCell>
        <mxCell id="RUlDnIiTWdbKFg5DgWMq-20" value="개한테 인사한다" style="ellipse;whiteSpace=wrap;html=1;" parent="1" vertex="1">
          <mxGeometry x="499" y="610" width="100" height="50" as="geometry" />
        </mxCell>
        <mxCell id="RUlDnIiTWdbKFg5DgWMq-21" value="개 사진 찍는다" style="ellipse;whiteSpace=wrap;html=1;" parent="1" vertex="1">
          <mxGeometry x="499" y="672.5" width="100" height="50" as="geometry" />
        </mxCell>
        <mxCell id="RUlDnIiTWdbKFg5DgWMq-22" value="빨리 걷는다" style="ellipse;whiteSpace=wrap;html=1;" parent="1" vertex="1">
          <mxGeometry x="418.5" y="290" width="80" height="55" as="geometry" />
        </mxCell>
        <mxCell id="RUlDnIiTWdbKFg5DgWMq-23" value="천천히 걷는다" style="ellipse;whiteSpace=wrap;html=1;" parent="1" vertex="1">
          <mxGeometry x="547.5" y="290" width="90" height="50" as="geometry" />
        </mxCell>
        <mxCell id="RUlDnIiTWdbKFg5DgWMq-24" value="&amp;lt;&amp;lt;extend&amp;gt;&amp;gt;" style="html=1;verticalAlign=bottom;labelBackgroundColor=none;endArrow=open;endFill=0;dashed=1;rounded=0;exitX=0.5;exitY=1;exitDx=0;exitDy=0;" parent="1" source="RUlDnIiTWdbKFg5DgWMq-22" edge="1">
          <mxGeometry x="-0.1289" y="-4" width="160" relative="1" as="geometry">
            <mxPoint x="467.4200000000001" y="349.99500000000006" as="sourcePoint" />
            <mxPoint x="500.5" y="415" as="targetPoint" />
            <mxPoint as="offset" />
          </mxGeometry>
        </mxCell>
        <mxCell id="RUlDnIiTWdbKFg5DgWMq-25" value="&amp;lt;&amp;lt;extend&amp;gt;&amp;gt;" style="html=1;verticalAlign=bottom;labelBackgroundColor=none;endArrow=open;endFill=0;dashed=1;rounded=0;exitX=0.5;exitY=1;exitDx=0;exitDy=0;entryX=0.78;entryY=0.06;entryDx=0;entryDy=0;entryPerimeter=0;" parent="1" edge="1">
          <mxGeometry width="160" relative="1" as="geometry">
            <mxPoint x="585.8799999999995" y="340.5" as="sourcePoint" />
            <mxPoint x="556.5" y="415" as="targetPoint" />
          </mxGeometry>
        </mxCell>
        <mxCell id="RUlDnIiTWdbKFg5DgWMq-44" value="" style="edgeStyle=orthogonalEdgeStyle;rounded=0;orthogonalLoop=1;jettySize=auto;html=1;" parent="1" source="RUlDnIiTWdbKFg5DgWMq-27" target="RUlDnIiTWdbKFg5DgWMq-28" edge="1">
          <mxGeometry relative="1" as="geometry" />
        </mxCell>
        <mxCell id="RUlDnIiTWdbKFg5DgWMq-27" value="벤치를 찾는다" style="ellipse;whiteSpace=wrap;html=1;" parent="1" vertex="1">
          <mxGeometry x="748.5" y="410" width="90" height="50" as="geometry" />
        </mxCell>
        <mxCell id="RUlDnIiTWdbKFg5DgWMq-45" value="" style="edgeStyle=orthogonalEdgeStyle;rounded=0;orthogonalLoop=1;jettySize=auto;html=1;entryX=0;entryY=0.5;entryDx=0;entryDy=0;" parent="1" target="RUlDnIiTWdbKFg5DgWMq-39" edge="1">
          <mxGeometry relative="1" as="geometry">
            <mxPoint x="953.5" y="435" as="sourcePoint" />
            <mxPoint x="997.5" y="435" as="targetPoint" />
          </mxGeometry>
        </mxCell>
        <mxCell id="RUlDnIiTWdbKFg5DgWMq-28" value="벤치에서 잠깐 쉰다" style="ellipse;whiteSpace=wrap;html=1;" parent="1" vertex="1">
          <mxGeometry x="868.5" y="410" width="110" height="50" as="geometry" />
        </mxCell>
        <mxCell id="RUlDnIiTWdbKFg5DgWMq-29" value="운동기구로&lt;br&gt;운동한다" style="ellipse;whiteSpace=wrap;html=1;" parent="1" vertex="1">
          <mxGeometry x="405.63" y="880" width="90" height="50" as="geometry" />
        </mxCell>
        <mxCell id="RUlDnIiTWdbKFg5DgWMq-31" value="이쁜 꽃을 발견한다" style="ellipse;whiteSpace=wrap;html=1;" parent="1" vertex="1">
          <mxGeometry x="408.5" y="500" width="111.5" height="40" as="geometry" />
        </mxCell>
        <mxCell id="RUlDnIiTWdbKFg5DgWMq-32" value="사진을 찍는다" style="ellipse;whiteSpace=wrap;html=1;" parent="1" vertex="1">
          <mxGeometry x="424.25" y="550" width="80" height="50" as="geometry" />
        </mxCell>
        <mxCell id="RUlDnIiTWdbKFg5DgWMq-33" value="트랙을 발견한다" style="ellipse;whiteSpace=wrap;html=1;" parent="1" vertex="1">
          <mxGeometry x="305" y="1030" width="100" height="50" as="geometry" />
        </mxCell>
        <mxCell id="RUlDnIiTWdbKFg5DgWMq-34" value="트랙을 걷는다" style="ellipse;whiteSpace=wrap;html=1;" parent="1" vertex="1">
          <mxGeometry x="435" y="1030" width="100" height="50" as="geometry" />
        </mxCell>
        <mxCell id="RUlDnIiTWdbKFg5DgWMq-35" value="일상 얘기를 한다" style="ellipse;whiteSpace=wrap;html=1;" parent="1" vertex="1">
          <mxGeometry x="395" y="1130" width="109" height="50" as="geometry" />
        </mxCell>
        <mxCell id="RUlDnIiTWdbKFg5DgWMq-36" value="&amp;lt;&amp;lt;extend&amp;gt;&amp;gt;" style="html=1;verticalAlign=bottom;labelBackgroundColor=none;endArrow=open;endFill=0;dashed=1;rounded=0;exitX=0.5;exitY=0;exitDx=0;exitDy=0;entryX=0.5;entryY=1;entryDx=0;entryDy=0;" parent="1" source="RUlDnIiTWdbKFg5DgWMq-35" target="RUlDnIiTWdbKFg5DgWMq-34" edge="1">
          <mxGeometry x="-0.2012" y="-6" width="160" relative="1" as="geometry">
            <mxPoint x="478.2800000000001" y="1193.815" as="sourcePoint" />
            <mxPoint x="511.3560000000001" y="1266.1110299999998" as="targetPoint" />
            <mxPoint as="offset" />
          </mxGeometry>
        </mxCell>
        <mxCell id="RUlDnIiTWdbKFg5DgWMq-37" style="edgeStyle=orthogonalEdgeStyle;rounded=0;orthogonalLoop=1;jettySize=auto;html=1;exitX=0.5;exitY=1;exitDx=0;exitDy=0;" parent="1" source="RUlDnIiTWdbKFg5DgWMq-17" target="RUlDnIiTWdbKFg5DgWMq-17" edge="1">
          <mxGeometry relative="1" as="geometry" />
        </mxCell>
        <mxCell id="RUlDnIiTWdbKFg5DgWMq-46" value="" style="edgeStyle=orthogonalEdgeStyle;rounded=0;orthogonalLoop=1;jettySize=auto;html=1;" parent="1" source="RUlDnIiTWdbKFg5DgWMq-39" target="RUlDnIiTWdbKFg5DgWMq-40" edge="1">
          <mxGeometry relative="1" as="geometry" />
        </mxCell>
        <mxCell id="RUlDnIiTWdbKFg5DgWMq-39" value="트랙을 다시 걷는다" style="ellipse;whiteSpace=wrap;html=1;" parent="1" vertex="1">
          <mxGeometry x="1008.5" y="410" width="111" height="50" as="geometry" />
        </mxCell>
        <mxCell id="RUlDnIiTWdbKFg5DgWMq-47" value="" style="edgeStyle=orthogonalEdgeStyle;rounded=0;orthogonalLoop=1;jettySize=auto;html=1;" parent="1" source="RUlDnIiTWdbKFg5DgWMq-40" target="RUlDnIiTWdbKFg5DgWMq-41" edge="1">
          <mxGeometry relative="1" as="geometry" />
        </mxCell>
        <mxCell id="RUlDnIiTWdbKFg5DgWMq-40" value="시계를 본다" style="ellipse;whiteSpace=wrap;html=1;" parent="1" vertex="1">
          <mxGeometry x="1146.5" y="410" width="90" height="50" as="geometry" />
        </mxCell>
        <mxCell id="RUlDnIiTWdbKFg5DgWMq-41" value="산책을 종료한다" style="ellipse;whiteSpace=wrap;html=1;" parent="1" vertex="1">
          <mxGeometry x="1260.5" y="410" width="116" height="50" as="geometry" />
        </mxCell>
        <mxCell id="RUlDnIiTWdbKFg5DgWMq-54" value="개 주인과 잠깐 같이 걷는다" style="ellipse;whiteSpace=wrap;html=1;" parent="1" vertex="1">
          <mxGeometry x="509" y="746.9300000000001" width="90" height="53.37" as="geometry" />
        </mxCell>
        <mxCell id="RUlDnIiTWdbKFg5DgWMq-55" value="트랙을 걸으러 간다" style="ellipse;whiteSpace=wrap;html=1;" parent="1" vertex="1">
          <mxGeometry x="635" y="668.0000000000002" width="90" height="53.37" as="geometry" />
        </mxCell>
        <mxCell id="RUlDnIiTWdbKFg5DgWMq-56" value="인과관계 원인과 결과&lt;br&gt;&lt;br&gt;트랙을 걷다&quot;와 &quot;벤치를 찾는 것&quot;은 인과관계가 아닌 두 가지 동시에 발생할 수 있는 활동입니다. 인과관계는 한 사건이 다른 사건을 일으키거나 영향을 주는 관계를 나타내는 것인데, &quot;트랙을 걷다&quot;와 &quot;벤치를 찾는 것&quot;은 서로 동시에 발생할 가능성이 있지만, 한 사건이 다른 사건을 직접적으로 일으키거나 영향을 주는 것은 아닙니다.&amp;nbsp;" style="rounded=0;whiteSpace=wrap;html=1;" parent="1" vertex="1">
          <mxGeometry x="30" y="110" width="280" height="170" as="geometry" />
        </mxCell>
        <mxCell id="RUlDnIiTWdbKFg5DgWMq-58" value="" style="edgeStyle=orthogonalEdgeStyle;rounded=0;orthogonalLoop=1;jettySize=auto;html=1;" parent="1" source="RUlDnIiTWdbKFg5DgWMq-57" target="RUlDnIiTWdbKFg5DgWMq-27" edge="1">
          <mxGeometry relative="1" as="geometry" />
        </mxCell>
        <mxCell id="RUlDnIiTWdbKFg5DgWMq-57" value="힘들다고 느낀다" style="ellipse;whiteSpace=wrap;html=1;" parent="1" vertex="1">
          <mxGeometry x="623.5" y="410" width="100" height="50" as="geometry" />
        </mxCell>
        <mxCell id="RUlDnIiTWdbKFg5DgWMq-61" value="" style="edgeStyle=orthogonalEdgeStyle;rounded=0;orthogonalLoop=1;jettySize=auto;html=1;" parent="1" edge="1">
          <mxGeometry relative="1" as="geometry">
            <mxPoint x="375.62993816881715" y="905.0344827586207" as="sourcePoint" />
            <mxPoint x="405.63" y="905" as="targetPoint" />
          </mxGeometry>
        </mxCell>
        <mxCell id="RUlDnIiTWdbKFg5DgWMq-60" value="운동기구를 발견한다" style="ellipse;whiteSpace=wrap;html=1;" parent="1" vertex="1">
          <mxGeometry x="249.63" y="880" width="130" height="50" as="geometry" />
        </mxCell>
        <mxCell id="RUlDnIiTWdbKFg5DgWMq-62" value="&amp;lt;&amp;lt;extend&amp;gt;&amp;gt;" style="html=1;verticalAlign=bottom;labelBackgroundColor=none;endArrow=open;endFill=0;dashed=1;rounded=0;entryX=0;entryY=1;entryDx=0;entryDy=0;" parent="1" target="RUlDnIiTWdbKFg5DgWMq-17" edge="1">
          <mxGeometry x="-0.1289" y="-4" width="160" relative="1" as="geometry">
            <mxPoint x="468.5" y="500" as="sourcePoint" />
            <mxPoint x="508.5" y="540" as="targetPoint" />
            <mxPoint as="offset" />
          </mxGeometry>
        </mxCell>
        <mxCell id="RUlDnIiTWdbKFg5DgWMq-66" value="" style="edgeStyle=orthogonalEdgeStyle;rounded=0;orthogonalLoop=1;jettySize=auto;html=1;" parent="1" edge="1">
          <mxGeometry relative="1" as="geometry">
            <mxPoint x="219.62996195004132" y="904.5044827586207" as="sourcePoint" />
            <mxPoint x="249.63006183118284" y="904.5044827586207" as="targetPoint" />
          </mxGeometry>
        </mxCell>
        <mxCell id="RUlDnIiTWdbKFg5DgWMq-63" value="운동한다&amp;nbsp;" style="ellipse;whiteSpace=wrap;html=1;fillColor=#FFFAF0;" parent="1" vertex="1">
          <mxGeometry x="140" y="880" width="89.63" height="50" as="geometry" />
        </mxCell>
        <mxCell id="RUlDnIiTWdbKFg5DgWMq-64" value="산책한다&amp;nbsp;" style="ellipse;whiteSpace=wrap;html=1;" parent="1" vertex="1">
          <mxGeometry x="243.5" y="420" width="100" height="50" as="geometry" />
        </mxCell>
        <mxCell id="RUlDnIiTWdbKFg5DgWMq-101" value="나 ( = 혜진)&amp;nbsp;" style="shape=umlActor;verticalLabelPosition=bottom;verticalAlign=top;html=1;" parent="1" vertex="1">
          <mxGeometry x="10" y="2260" width="60" height="97.5" as="geometry" />
        </mxCell>
        <mxCell id="RUlDnIiTWdbKFg5DgWMq-102" value="&lt;font style=&quot;font-size: 11px;&quot;&gt;산책한다&lt;br&gt;&lt;/font&gt;" style="ellipse;whiteSpace=wrap;html=1;" parent="1" vertex="1">
          <mxGeometry x="150" y="2193.07" width="99.63" height="50" as="geometry" />
        </mxCell>
        <mxCell id="RUlDnIiTWdbKFg5DgWMq-103" value="" style="edgeStyle=orthogonalEdgeStyle;rounded=0;orthogonalLoop=1;jettySize=auto;html=1;" parent="1" source="RUlDnIiTWdbKFg5DgWMq-104" target="RUlDnIiTWdbKFg5DgWMq-128" edge="1">
          <mxGeometry relative="1" as="geometry" />
        </mxCell>
        <mxCell id="RUlDnIiTWdbKFg5DgWMq-104" value="트랙을 걷는다" style="ellipse;whiteSpace=wrap;html=1;" parent="1" vertex="1">
          <mxGeometry x="410.92" y="2022.43" width="100" height="50" as="geometry" />
        </mxCell>
        <mxCell id="RUlDnIiTWdbKFg5DgWMq-105" value="" style="edgeStyle=orthogonalEdgeStyle;rounded=0;orthogonalLoop=1;jettySize=auto;html=1;" parent="1" source="RUlDnIiTWdbKFg5DgWMq-106" target="RUlDnIiTWdbKFg5DgWMq-104" edge="1">
          <mxGeometry relative="1" as="geometry" />
        </mxCell>
        <mxCell id="RUlDnIiTWdbKFg5DgWMq-106" value="트랙을 발견한다" style="ellipse;whiteSpace=wrap;html=1;" parent="1" vertex="1">
          <mxGeometry x="290.92" y="2022.43" width="100" height="50" as="geometry" />
        </mxCell>
        <mxCell id="RUlDnIiTWdbKFg5DgWMq-107" value="빨리 걷는다" style="ellipse;whiteSpace=wrap;html=1;" parent="1" vertex="1">
          <mxGeometry x="351.42" y="1912.43" width="80" height="55" as="geometry" />
        </mxCell>
        <mxCell id="RUlDnIiTWdbKFg5DgWMq-108" value="천천히 걷는다" style="ellipse;whiteSpace=wrap;html=1;" parent="1" vertex="1">
          <mxGeometry x="480.42" y="1912.43" width="90" height="50" as="geometry" />
        </mxCell>
        <mxCell id="RUlDnIiTWdbKFg5DgWMq-109" value="&amp;lt;&amp;lt;extend&amp;gt;&amp;gt;" style="html=1;verticalAlign=bottom;labelBackgroundColor=none;endArrow=open;endFill=0;dashed=1;rounded=0;exitX=0.5;exitY=1;exitDx=0;exitDy=0;" parent="1" source="RUlDnIiTWdbKFg5DgWMq-107" edge="1">
          <mxGeometry x="-0.1289" y="-4" width="160" relative="1" as="geometry">
            <mxPoint x="399.8400000000001" y="1962.4250000000002" as="sourcePoint" />
            <mxPoint x="432.92" y="2027.43" as="targetPoint" />
            <mxPoint as="offset" />
          </mxGeometry>
        </mxCell>
        <mxCell id="RUlDnIiTWdbKFg5DgWMq-110" value="&amp;lt;&amp;lt;extend&amp;gt;&amp;gt;" style="html=1;verticalAlign=bottom;labelBackgroundColor=none;endArrow=open;endFill=0;dashed=1;rounded=0;entryX=0.78;entryY=0.06;entryDx=0;entryDy=0;entryPerimeter=0;" parent="1" edge="1">
          <mxGeometry width="160" relative="1" as="geometry">
            <mxPoint x="512.4200000000001" y="1962.43" as="sourcePoint" />
            <mxPoint x="488.92" y="2027.43" as="targetPoint" />
          </mxGeometry>
        </mxCell>
        <mxCell id="RUlDnIiTWdbKFg5DgWMq-111" value="" style="edgeStyle=orthogonalEdgeStyle;rounded=0;orthogonalLoop=1;jettySize=auto;html=1;" parent="1" source="RUlDnIiTWdbKFg5DgWMq-112" target="RUlDnIiTWdbKFg5DgWMq-114" edge="1">
          <mxGeometry relative="1" as="geometry" />
        </mxCell>
        <mxCell id="RUlDnIiTWdbKFg5DgWMq-112" value="벤치로 걸어간다" style="ellipse;whiteSpace=wrap;html=1;" parent="1" vertex="1">
          <mxGeometry x="652.4200000000001" y="2022.43" width="90" height="50" as="geometry" />
        </mxCell>
        <mxCell id="RUlDnIiTWdbKFg5DgWMq-140" value="" style="edgeStyle=orthogonalEdgeStyle;rounded=0;orthogonalLoop=1;jettySize=auto;html=1;" parent="1" source="RUlDnIiTWdbKFg5DgWMq-114" target="RUlDnIiTWdbKFg5DgWMq-139" edge="1">
          <mxGeometry relative="1" as="geometry" />
        </mxCell>
        <mxCell id="RUlDnIiTWdbKFg5DgWMq-114" value="벤치에서 잠깐 쉰다&lt;br&gt;의자에 앉는다&amp;nbsp;" style="ellipse;whiteSpace=wrap;html=1;" parent="1" vertex="1">
          <mxGeometry x="768.4200000000001" y="2011.43" width="110" height="70" as="geometry" />
        </mxCell>
        <mxCell id="RUlDnIiTWdbKFg5DgWMq-137" value="" style="edgeStyle=orthogonalEdgeStyle;rounded=0;orthogonalLoop=1;jettySize=auto;html=1;" parent="1" source="RUlDnIiTWdbKFg5DgWMq-115" target="RUlDnIiTWdbKFg5DgWMq-136" edge="1">
          <mxGeometry relative="1" as="geometry" />
        </mxCell>
        <mxCell id="RUlDnIiTWdbKFg5DgWMq-115" value="운동기구쪽로&lt;br&gt;걸어간다&amp;nbsp;" style="ellipse;whiteSpace=wrap;html=1;" parent="1" vertex="1">
          <mxGeometry x="449.75" y="2370" width="90" height="50" as="geometry" />
        </mxCell>
        <mxCell id="RUlDnIiTWdbKFg5DgWMq-158" value="" style="edgeStyle=orthogonalEdgeStyle;rounded=0;orthogonalLoop=1;jettySize=auto;html=1;" parent="1" source="RUlDnIiTWdbKFg5DgWMq-117" target="RUlDnIiTWdbKFg5DgWMq-118" edge="1">
          <mxGeometry relative="1" as="geometry" />
        </mxCell>
        <mxCell id="RUlDnIiTWdbKFg5DgWMq-117" value="이쁜 꽃을 발견한다" style="ellipse;whiteSpace=wrap;html=1;" parent="1" vertex="1">
          <mxGeometry x="286.5" y="2290" width="111.5" height="50" as="geometry" />
        </mxCell>
        <mxCell id="RUlDnIiTWdbKFg5DgWMq-118" value="사진을 찍는다" style="ellipse;whiteSpace=wrap;html=1;" parent="1" vertex="1">
          <mxGeometry x="424.5" y="2290" width="80" height="50" as="geometry" />
        </mxCell>
        <mxCell id="RUlDnIiTWdbKFg5DgWMq-119" style="edgeStyle=orthogonalEdgeStyle;rounded=0;orthogonalLoop=1;jettySize=auto;html=1;exitX=0.5;exitY=1;exitDx=0;exitDy=0;" parent="1" source="RUlDnIiTWdbKFg5DgWMq-104" target="RUlDnIiTWdbKFg5DgWMq-104" edge="1">
          <mxGeometry relative="1" as="geometry" />
        </mxCell>
        <mxCell id="RUlDnIiTWdbKFg5DgWMq-120" value="" style="edgeStyle=orthogonalEdgeStyle;rounded=0;orthogonalLoop=1;jettySize=auto;html=1;" parent="1" source="RUlDnIiTWdbKFg5DgWMq-121" target="RUlDnIiTWdbKFg5DgWMq-123" edge="1">
          <mxGeometry relative="1" as="geometry" />
        </mxCell>
        <mxCell id="RUlDnIiTWdbKFg5DgWMq-121" value="트랙을 다시 걷는다" style="ellipse;whiteSpace=wrap;html=1;" parent="1" vertex="1">
          <mxGeometry x="1029.4199999999998" y="2021.43" width="111" height="50" as="geometry" />
        </mxCell>
        <mxCell id="RUlDnIiTWdbKFg5DgWMq-122" value="" style="edgeStyle=orthogonalEdgeStyle;rounded=0;orthogonalLoop=1;jettySize=auto;html=1;" parent="1" edge="1">
          <mxGeometry relative="1" as="geometry">
            <mxPoint x="1249.4199600475433" y="2046.464482758621" as="sourcePoint" />
            <mxPoint x="1268.4199999999998" y="2046.43" as="targetPoint" />
          </mxGeometry>
        </mxCell>
        <mxCell id="RUlDnIiTWdbKFg5DgWMq-123" value="시계를 본다" style="ellipse;whiteSpace=wrap;html=1;" parent="1" vertex="1">
          <mxGeometry x="1164.4199999999998" y="2021.43" width="84" height="50" as="geometry" />
        </mxCell>
        <mxCell id="RUlDnIiTWdbKFg5DgWMq-124" value="산책을 종료한다" style="ellipse;whiteSpace=wrap;html=1;" parent="1" vertex="1">
          <mxGeometry x="1268.4199999999998" y="2021.43" width="100" height="50" as="geometry" />
        </mxCell>
        <mxCell id="RUlDnIiTWdbKFg5DgWMq-127" value="" style="edgeStyle=orthogonalEdgeStyle;rounded=0;orthogonalLoop=1;jettySize=auto;html=1;" parent="1" source="RUlDnIiTWdbKFg5DgWMq-128" target="RUlDnIiTWdbKFg5DgWMq-112" edge="1">
          <mxGeometry relative="1" as="geometry" />
        </mxCell>
        <mxCell id="RUlDnIiTWdbKFg5DgWMq-128" value="힘들다고 느낀다" style="ellipse;whiteSpace=wrap;html=1;" parent="1" vertex="1">
          <mxGeometry x="532.4200000000001" y="2022.43" width="100" height="50" as="geometry" />
        </mxCell>
        <mxCell id="RUlDnIiTWdbKFg5DgWMq-129" value="" style="edgeStyle=orthogonalEdgeStyle;rounded=0;orthogonalLoop=1;jettySize=auto;html=1;" parent="1" edge="1">
          <mxGeometry relative="1" as="geometry">
            <mxPoint x="419.74993816881715" y="2395.0344827586205" as="sourcePoint" />
            <mxPoint x="449.75" y="2395" as="targetPoint" />
          </mxGeometry>
        </mxCell>
        <mxCell id="RUlDnIiTWdbKFg5DgWMq-130" value="운동기구를 찾는다" style="ellipse;whiteSpace=wrap;html=1;" parent="1" vertex="1">
          <mxGeometry x="296.75" y="2370" width="130" height="50" as="geometry" />
        </mxCell>
        <mxCell id="RUlDnIiTWdbKFg5DgWMq-132" value="" style="edgeStyle=orthogonalEdgeStyle;rounded=0;orthogonalLoop=1;jettySize=auto;html=1;" parent="1" edge="1">
          <mxGeometry relative="1" as="geometry">
            <mxPoint x="263.7499619500413" y="2394.5044827586207" as="sourcePoint" />
            <mxPoint x="293.75006183118285" y="2394.5044827586207" as="targetPoint" />
          </mxGeometry>
        </mxCell>
        <mxCell id="RUlDnIiTWdbKFg5DgWMq-133" value="산책 후 운동한다&amp;nbsp;" style="ellipse;whiteSpace=wrap;html=1;" parent="1" vertex="1">
          <mxGeometry x="156.75" y="2370" width="106.25" height="50" as="geometry" />
        </mxCell>
        <mxCell id="RUlDnIiTWdbKFg5DgWMq-135" value="&lt;span style=&quot;color: rgb(255, 41, 8); font-family: Helvetica; font-size: 12px; font-style: normal; font-variant-ligatures: normal; font-variant-caps: normal; font-weight: 400; letter-spacing: normal; orphans: 2; text-align: left; text-indent: 0px; text-transform: none; widows: 2; word-spacing: 0px; -webkit-text-stroke-width: 0px; background-color: rgb(251, 251, 251); text-decoration-thickness: initial; text-decoration-style: initial; text-decoration-color: initial; float: none; display: inline !important;&quot;&gt;&amp;nbsp; &amp;nbsp; 주제&amp;nbsp; :&amp;nbsp; 천호공원에서 산책하고 운동한다&lt;br&gt;&lt;br&gt;&lt;br&gt;&amp;nbsp; &amp;nbsp;&lt;br&gt;&lt;/span&gt;" style="text;whiteSpace=wrap;html=1;fillColor=#f5f5f5;fontColor=#333333;strokeColor=#666666;" parent="1" vertex="1">
          <mxGeometry x="10" y="1820" width="280" height="30" as="geometry" />
        </mxCell>
        <mxCell id="RUlDnIiTWdbKFg5DgWMq-136" value="운동기구로&lt;br&gt;운동한다" style="ellipse;whiteSpace=wrap;html=1;" parent="1" vertex="1">
          <mxGeometry x="570.25" y="2370" width="90" height="50" as="geometry" />
        </mxCell>
        <mxCell id="RUlDnIiTWdbKFg5DgWMq-141" value="" style="edgeStyle=orthogonalEdgeStyle;rounded=0;orthogonalLoop=1;jettySize=auto;html=1;" parent="1" source="RUlDnIiTWdbKFg5DgWMq-139" target="RUlDnIiTWdbKFg5DgWMq-121" edge="1">
          <mxGeometry relative="1" as="geometry" />
        </mxCell>
        <mxCell id="RUlDnIiTWdbKFg5DgWMq-139" value="의자에서 일어난다" style="ellipse;whiteSpace=wrap;html=1;" parent="1" vertex="1">
          <mxGeometry x="898.4200000000001" y="2021.43" width="111" height="50" as="geometry" />
        </mxCell>
        <mxCell id="RUlDnIiTWdbKFg5DgWMq-148" value="" style="edgeStyle=orthogonalEdgeStyle;rounded=0;orthogonalLoop=1;jettySize=auto;html=1;" parent="1" source="RUlDnIiTWdbKFg5DgWMq-142" target="RUlDnIiTWdbKFg5DgWMq-143" edge="1">
          <mxGeometry relative="1" as="geometry" />
        </mxCell>
        <mxCell id="RUlDnIiTWdbKFg5DgWMq-142" value="개를 발견한다" style="ellipse;whiteSpace=wrap;html=1;" parent="1" vertex="1">
          <mxGeometry x="290" y="2193.07" width="90" height="53.37" as="geometry" />
        </mxCell>
        <mxCell id="RUlDnIiTWdbKFg5DgWMq-149" value="" style="edgeStyle=orthogonalEdgeStyle;rounded=0;orthogonalLoop=1;jettySize=auto;html=1;" parent="1" source="RUlDnIiTWdbKFg5DgWMq-143" target="RUlDnIiTWdbKFg5DgWMq-145" edge="1">
          <mxGeometry relative="1" as="geometry" />
        </mxCell>
        <mxCell id="RUlDnIiTWdbKFg5DgWMq-143" value="개 주인에게&amp;nbsp;&lt;br&gt;말을 건다" style="ellipse;whiteSpace=wrap;html=1;" parent="1" vertex="1">
          <mxGeometry x="410" y="2193.07" width="90" height="53.37" as="geometry" />
        </mxCell>
        <mxCell id="RUlDnIiTWdbKFg5DgWMq-144" value="개한테 인사한다" style="ellipse;whiteSpace=wrap;html=1;" parent="1" vertex="1">
          <mxGeometry x="531.5" y="2140" width="100" height="50" as="geometry" />
        </mxCell>
        <mxCell id="RUlDnIiTWdbKFg5DgWMq-145" value="개 사진 찍는다" style="ellipse;whiteSpace=wrap;html=1;" parent="1" vertex="1">
          <mxGeometry x="531.5" y="2201.5" width="100" height="37.5" as="geometry" />
        </mxCell>
        <mxCell id="RUlDnIiTWdbKFg5DgWMq-146" value="개 주인과 잠깐 &lt;br&gt;같이 걷는다" style="ellipse;whiteSpace=wrap;html=1;" parent="1" vertex="1">
          <mxGeometry x="516" y="2246.44" width="115.5" height="53.37" as="geometry" />
        </mxCell>
        <mxCell id="RUlDnIiTWdbKFg5DgWMq-150" value="" style="endArrow=classic;html=1;rounded=0;exitX=1;exitY=0;exitDx=0;exitDy=0;" parent="1" source="RUlDnIiTWdbKFg5DgWMq-143" edge="1">
          <mxGeometry width="50" height="50" relative="1" as="geometry">
            <mxPoint x="481.5" y="2220" as="sourcePoint" />
            <mxPoint x="531.5" y="2170" as="targetPoint" />
          </mxGeometry>
        </mxCell>
        <mxCell id="RUlDnIiTWdbKFg5DgWMq-151" value="" style="endArrow=classic;html=1;rounded=0;" parent="1" edge="1">
          <mxGeometry width="50" height="50" relative="1" as="geometry">
            <mxPoint x="486.5" y="2239" as="sourcePoint" />
            <mxPoint x="516.5" y="2269" as="targetPoint" />
          </mxGeometry>
        </mxCell>
        <mxCell id="RUlDnIiTWdbKFg5DgWMq-152" value="인터벌로 뛴다" style="ellipse;whiteSpace=wrap;html=1;" parent="1" vertex="1">
          <mxGeometry x="416.92" y="2112.43" width="90" height="50" as="geometry" />
        </mxCell>
        <mxCell id="RUlDnIiTWdbKFg5DgWMq-153" value="&amp;lt;&amp;lt;extend&amp;gt;&amp;gt;" style="html=1;verticalAlign=bottom;labelBackgroundColor=none;endArrow=open;endFill=0;dashed=1;rounded=0;entryX=0.5;entryY=1;entryDx=0;entryDy=0;" parent="1" source="RUlDnIiTWdbKFg5DgWMq-152" target="RUlDnIiTWdbKFg5DgWMq-104" edge="1">
          <mxGeometry x="-0.4991" y="1" width="160" relative="1" as="geometry">
            <mxPoint x="508.37999999999954" y="1985.5" as="sourcePoint" />
            <mxPoint x="479" y="2060" as="targetPoint" />
            <mxPoint y="1" as="offset" />
          </mxGeometry>
        </mxCell>
        <mxCell id="RUlDnIiTWdbKFg5DgWMq-156" value="" style="endArrow=none;html=1;rounded=0;entryX=0.5;entryY=1;entryDx=0;entryDy=0;exitX=0.5;exitY=0;exitDx=0;exitDy=0;" parent="1" source="RUlDnIiTWdbKFg5DgWMq-102" target="RUlDnIiTWdbKFg5DgWMq-106" edge="1">
          <mxGeometry width="50" height="50" relative="1" as="geometry">
            <mxPoint x="218.57432000000009" y="2206.5" as="sourcePoint" />
            <mxPoint x="302.42" y="2062.43" as="targetPoint" />
          </mxGeometry>
        </mxCell>
        <mxCell id="RUlDnIiTWdbKFg5DgWMq-157" value="" style="endArrow=none;html=1;rounded=0;entryX=0;entryY=0.491;entryDx=0;entryDy=0;entryPerimeter=0;" parent="1" edge="1">
          <mxGeometry width="50" height="50" relative="1" as="geometry">
            <mxPoint x="249" y="2217.48" as="sourcePoint" />
            <mxPoint x="290" y="2217.5046700000003" as="targetPoint" />
            <Array as="points">
              <mxPoint x="260" y="2217.48" />
            </Array>
          </mxGeometry>
        </mxCell>
        <mxCell id="RUlDnIiTWdbKFg5DgWMq-159" value="" style="endArrow=none;html=1;rounded=0;entryX=0;entryY=0.5;entryDx=0;entryDy=0;exitX=0.5;exitY=1;exitDx=0;exitDy=0;" parent="1" target="RUlDnIiTWdbKFg5DgWMq-117" edge="1">
          <mxGeometry width="50" height="50" relative="1" as="geometry">
            <mxPoint x="197.81500000000005" y="2243.07" as="sourcePoint" />
            <mxPoint x="288" y="2353.82" as="targetPoint" />
          </mxGeometry>
        </mxCell>
        <mxCell id="RUlDnIiTWdbKFg5DgWMq-160" value="" style="endArrow=none;html=1;rounded=0;" parent="1" edge="1">
          <mxGeometry width="50" height="50" relative="1" as="geometry">
            <mxPoint x="80" y="2310" as="sourcePoint" />
            <mxPoint x="151" y="2223" as="targetPoint" />
          </mxGeometry>
        </mxCell>
        <mxCell id="RUlDnIiTWdbKFg5DgWMq-162" value="" style="endArrow=none;html=1;rounded=0;entryX=0.064;entryY=0.332;entryDx=0;entryDy=0;entryPerimeter=0;" parent="1" target="RUlDnIiTWdbKFg5DgWMq-133" edge="1">
          <mxGeometry width="50" height="50" relative="1" as="geometry">
            <mxPoint x="80" y="2310" as="sourcePoint" />
            <mxPoint x="160" y="2380" as="targetPoint" />
          </mxGeometry>
        </mxCell>
        <mxCell id="MgbEQDitMIPxZw4n5yvV-1" value="나 ( = 혜진)&amp;nbsp;" style="shape=umlActor;verticalLabelPosition=bottom;verticalAlign=top;html=1;" vertex="1" parent="1">
          <mxGeometry x="20.5" y="3120" width="60" height="97.5" as="geometry" />
        </mxCell>
        <mxCell id="MgbEQDitMIPxZw4n5yvV-2" value="&lt;font style=&quot;font-size: 11px;&quot;&gt;산책한다&lt;br&gt;&lt;/font&gt;" style="ellipse;whiteSpace=wrap;html=1;" vertex="1" parent="1">
          <mxGeometry x="259.63" y="3063.07" width="100" height="50" as="geometry" />
        </mxCell>
        <mxCell id="MgbEQDitMIPxZw4n5yvV-3" value="" style="edgeStyle=orthogonalEdgeStyle;rounded=0;orthogonalLoop=1;jettySize=auto;html=1;" edge="1" parent="1" source="MgbEQDitMIPxZw4n5yvV-4" target="MgbEQDitMIPxZw4n5yvV-27">
          <mxGeometry relative="1" as="geometry" />
        </mxCell>
        <mxCell id="MgbEQDitMIPxZw4n5yvV-4" value="트랙을 걷는다" style="ellipse;whiteSpace=wrap;html=1;" vertex="1" parent="1">
          <mxGeometry x="518.5" y="2880" width="100" height="50" as="geometry" />
        </mxCell>
        <mxCell id="MgbEQDitMIPxZw4n5yvV-5" value="" style="edgeStyle=orthogonalEdgeStyle;rounded=0;orthogonalLoop=1;jettySize=auto;html=1;" edge="1" parent="1" source="MgbEQDitMIPxZw4n5yvV-6" target="MgbEQDitMIPxZw4n5yvV-4">
          <mxGeometry relative="1" as="geometry" />
        </mxCell>
        <mxCell id="MgbEQDitMIPxZw4n5yvV-6" value="트랙을 발견한다" style="ellipse;whiteSpace=wrap;html=1;" vertex="1" parent="1">
          <mxGeometry x="398.5" y="2880" width="100" height="50" as="geometry" />
        </mxCell>
        <mxCell id="MgbEQDitMIPxZw4n5yvV-7" value="빨리 걷는다" style="ellipse;whiteSpace=wrap;html=1;" vertex="1" parent="1">
          <mxGeometry x="459" y="2770" width="80" height="55" as="geometry" />
        </mxCell>
        <mxCell id="MgbEQDitMIPxZw4n5yvV-8" value="천천히 걷는다" style="ellipse;whiteSpace=wrap;html=1;" vertex="1" parent="1">
          <mxGeometry x="588" y="2770" width="90" height="50" as="geometry" />
        </mxCell>
        <mxCell id="MgbEQDitMIPxZw4n5yvV-9" value="&amp;lt;&amp;lt;extend&amp;gt;&amp;gt;" style="html=1;verticalAlign=bottom;labelBackgroundColor=none;endArrow=open;endFill=0;dashed=1;rounded=0;exitX=0.5;exitY=1;exitDx=0;exitDy=0;" edge="1" parent="1" source="MgbEQDitMIPxZw4n5yvV-7">
          <mxGeometry x="-0.1289" y="-4" width="160" relative="1" as="geometry">
            <mxPoint x="507.4200000000001" y="2819.995" as="sourcePoint" />
            <mxPoint x="540.5" y="2885" as="targetPoint" />
            <mxPoint as="offset" />
          </mxGeometry>
        </mxCell>
        <mxCell id="MgbEQDitMIPxZw4n5yvV-10" value="&amp;lt;&amp;lt;extend&amp;gt;&amp;gt;" style="html=1;verticalAlign=bottom;labelBackgroundColor=none;endArrow=open;endFill=0;dashed=1;rounded=0;entryX=0.78;entryY=0.06;entryDx=0;entryDy=0;entryPerimeter=0;" edge="1" parent="1">
          <mxGeometry width="160" relative="1" as="geometry">
            <mxPoint x="620" y="2820" as="sourcePoint" />
            <mxPoint x="596.5" y="2885" as="targetPoint" />
          </mxGeometry>
        </mxCell>
        <mxCell id="MgbEQDitMIPxZw4n5yvV-11" value="" style="edgeStyle=orthogonalEdgeStyle;rounded=0;orthogonalLoop=1;jettySize=auto;html=1;" edge="1" parent="1" source="MgbEQDitMIPxZw4n5yvV-12" target="MgbEQDitMIPxZw4n5yvV-14">
          <mxGeometry relative="1" as="geometry" />
        </mxCell>
        <mxCell id="MgbEQDitMIPxZw4n5yvV-12" value="벤치로 걸어간다" style="ellipse;whiteSpace=wrap;html=1;" vertex="1" parent="1">
          <mxGeometry x="760" y="2880" width="90" height="50" as="geometry" />
        </mxCell>
        <mxCell id="MgbEQDitMIPxZw4n5yvV-13" value="" style="edgeStyle=orthogonalEdgeStyle;rounded=0;orthogonalLoop=1;jettySize=auto;html=1;" edge="1" parent="1" source="MgbEQDitMIPxZw4n5yvV-14" target="MgbEQDitMIPxZw4n5yvV-35">
          <mxGeometry relative="1" as="geometry" />
        </mxCell>
        <mxCell id="MgbEQDitMIPxZw4n5yvV-14" value="벤치에서 잠깐 쉰다&lt;br&gt;의자에 앉는다&amp;nbsp;" style="ellipse;whiteSpace=wrap;html=1;" vertex="1" parent="1">
          <mxGeometry x="876" y="2869" width="110" height="70" as="geometry" />
        </mxCell>
        <mxCell id="MgbEQDitMIPxZw4n5yvV-15" value="" style="edgeStyle=orthogonalEdgeStyle;rounded=0;orthogonalLoop=1;jettySize=auto;html=1;" edge="1" parent="1" source="MgbEQDitMIPxZw4n5yvV-16" target="MgbEQDitMIPxZw4n5yvV-33">
          <mxGeometry relative="1" as="geometry" />
        </mxCell>
        <mxCell id="MgbEQDitMIPxZw4n5yvV-16" value="운동기구쪽로&lt;br&gt;걸어간다&amp;nbsp;" style="ellipse;whiteSpace=wrap;html=1;" vertex="1" parent="1">
          <mxGeometry x="559.75" y="3240" width="90" height="50" as="geometry" />
        </mxCell>
        <mxCell id="MgbEQDitMIPxZw4n5yvV-17" value="" style="edgeStyle=orthogonalEdgeStyle;rounded=0;orthogonalLoop=1;jettySize=auto;html=1;" edge="1" parent="1" source="MgbEQDitMIPxZw4n5yvV-18" target="MgbEQDitMIPxZw4n5yvV-19">
          <mxGeometry relative="1" as="geometry" />
        </mxCell>
        <mxCell id="MgbEQDitMIPxZw4n5yvV-18" value="이쁜 꽃을 발견한다" style="ellipse;whiteSpace=wrap;html=1;" vertex="1" parent="1">
          <mxGeometry x="398.5" y="3160" width="111.5" height="50" as="geometry" />
        </mxCell>
        <mxCell id="MgbEQDitMIPxZw4n5yvV-19" value="사진을 찍는다" style="ellipse;whiteSpace=wrap;html=1;" vertex="1" parent="1">
          <mxGeometry x="536.5" y="3160" width="80" height="50" as="geometry" />
        </mxCell>
        <mxCell id="MgbEQDitMIPxZw4n5yvV-20" style="edgeStyle=orthogonalEdgeStyle;rounded=0;orthogonalLoop=1;jettySize=auto;html=1;exitX=0.5;exitY=1;exitDx=0;exitDy=0;" edge="1" parent="1" source="MgbEQDitMIPxZw4n5yvV-4" target="MgbEQDitMIPxZw4n5yvV-4">
          <mxGeometry relative="1" as="geometry" />
        </mxCell>
        <mxCell id="MgbEQDitMIPxZw4n5yvV-21" value="" style="edgeStyle=orthogonalEdgeStyle;rounded=0;orthogonalLoop=1;jettySize=auto;html=1;" edge="1" parent="1" source="MgbEQDitMIPxZw4n5yvV-22" target="MgbEQDitMIPxZw4n5yvV-24">
          <mxGeometry relative="1" as="geometry" />
        </mxCell>
        <mxCell id="MgbEQDitMIPxZw4n5yvV-22" value="트랙을 다시 걷는다" style="ellipse;whiteSpace=wrap;html=1;" vertex="1" parent="1">
          <mxGeometry x="1137" y="2879" width="111" height="50" as="geometry" />
        </mxCell>
        <mxCell id="MgbEQDitMIPxZw4n5yvV-23" value="" style="edgeStyle=orthogonalEdgeStyle;rounded=0;orthogonalLoop=1;jettySize=auto;html=1;" edge="1" parent="1">
          <mxGeometry relative="1" as="geometry">
            <mxPoint x="1356.9999600475435" y="2904.034482758621" as="sourcePoint" />
            <mxPoint x="1376" y="2904" as="targetPoint" />
          </mxGeometry>
        </mxCell>
        <mxCell id="MgbEQDitMIPxZw4n5yvV-24" value="시계를 본다" style="ellipse;whiteSpace=wrap;html=1;" vertex="1" parent="1">
          <mxGeometry x="1272" y="2879" width="84" height="50" as="geometry" />
        </mxCell>
        <mxCell id="MgbEQDitMIPxZw4n5yvV-25" value="산책을 종료한다" style="ellipse;whiteSpace=wrap;html=1;" vertex="1" parent="1">
          <mxGeometry x="1376" y="2879" width="100" height="50" as="geometry" />
        </mxCell>
        <mxCell id="MgbEQDitMIPxZw4n5yvV-26" value="" style="edgeStyle=orthogonalEdgeStyle;rounded=0;orthogonalLoop=1;jettySize=auto;html=1;" edge="1" parent="1" source="MgbEQDitMIPxZw4n5yvV-27" target="MgbEQDitMIPxZw4n5yvV-12">
          <mxGeometry relative="1" as="geometry" />
        </mxCell>
        <mxCell id="MgbEQDitMIPxZw4n5yvV-27" value="힘들다고 느낀다" style="ellipse;whiteSpace=wrap;html=1;" vertex="1" parent="1">
          <mxGeometry x="640" y="2880" width="100" height="50" as="geometry" />
        </mxCell>
        <mxCell id="MgbEQDitMIPxZw4n5yvV-28" value="" style="edgeStyle=orthogonalEdgeStyle;rounded=0;orthogonalLoop=1;jettySize=auto;html=1;" edge="1" parent="1">
          <mxGeometry relative="1" as="geometry">
            <mxPoint x="529.7499381688172" y="3265.0344827586205" as="sourcePoint" />
            <mxPoint x="559.75" y="3265" as="targetPoint" />
          </mxGeometry>
        </mxCell>
        <mxCell id="MgbEQDitMIPxZw4n5yvV-29" value="운동기구를 찾는다" style="ellipse;whiteSpace=wrap;html=1;" vertex="1" parent="1">
          <mxGeometry x="406.75" y="3240" width="130" height="50" as="geometry" />
        </mxCell>
        <mxCell id="MgbEQDitMIPxZw4n5yvV-30" value="" style="edgeStyle=orthogonalEdgeStyle;rounded=0;orthogonalLoop=1;jettySize=auto;html=1;" edge="1" parent="1">
          <mxGeometry relative="1" as="geometry">
            <mxPoint x="373.7499619500413" y="3264.5044827586207" as="sourcePoint" />
            <mxPoint x="403.75006183118285" y="3264.5044827586207" as="targetPoint" />
          </mxGeometry>
        </mxCell>
        <mxCell id="MgbEQDitMIPxZw4n5yvV-31" value="운동한다&amp;nbsp;" style="ellipse;whiteSpace=wrap;html=1;" vertex="1" parent="1">
          <mxGeometry x="266.75" y="3240" width="106.25" height="50" as="geometry" />
        </mxCell>
        <mxCell id="MgbEQDitMIPxZw4n5yvV-32" value="&lt;span style=&quot;color: rgb(255, 41, 8); font-family: Helvetica; font-size: 12px; font-style: normal; font-variant-ligatures: normal; font-variant-caps: normal; font-weight: 400; letter-spacing: normal; orphans: 2; text-align: left; text-indent: 0px; text-transform: none; widows: 2; word-spacing: 0px; -webkit-text-stroke-width: 0px; background-color: rgb(251, 251, 251); text-decoration-thickness: initial; text-decoration-style: initial; text-decoration-color: initial; float: none; display: inline !important;&quot;&gt;&amp;nbsp; &amp;nbsp; 주제&amp;nbsp; :&amp;nbsp; 천호공원에서 산책하고 운동한다&lt;/span&gt;" style="text;whiteSpace=wrap;html=1;fillColor=#f5f5f5;fontColor=#333333;strokeColor=#666666;" vertex="1" parent="1">
          <mxGeometry x="20.5" y="2680" width="280" height="25" as="geometry" />
        </mxCell>
        <mxCell id="MgbEQDitMIPxZw4n5yvV-33" value="운동기구로&lt;br&gt;운동한다" style="ellipse;whiteSpace=wrap;html=1;" vertex="1" parent="1">
          <mxGeometry x="680.25" y="3240" width="90" height="50" as="geometry" />
        </mxCell>
        <mxCell id="MgbEQDitMIPxZw4n5yvV-34" value="" style="edgeStyle=orthogonalEdgeStyle;rounded=0;orthogonalLoop=1;jettySize=auto;html=1;" edge="1" parent="1" source="MgbEQDitMIPxZw4n5yvV-35" target="MgbEQDitMIPxZw4n5yvV-22">
          <mxGeometry relative="1" as="geometry" />
        </mxCell>
        <mxCell id="MgbEQDitMIPxZw4n5yvV-35" value="의자에서 일어난다" style="ellipse;whiteSpace=wrap;html=1;" vertex="1" parent="1">
          <mxGeometry x="1006" y="2879" width="111" height="50" as="geometry" />
        </mxCell>
        <mxCell id="MgbEQDitMIPxZw4n5yvV-36" value="" style="edgeStyle=orthogonalEdgeStyle;rounded=0;orthogonalLoop=1;jettySize=auto;html=1;" edge="1" parent="1" source="MgbEQDitMIPxZw4n5yvV-37" target="MgbEQDitMIPxZw4n5yvV-39">
          <mxGeometry relative="1" as="geometry" />
        </mxCell>
        <mxCell id="MgbEQDitMIPxZw4n5yvV-37" value="개를 발견한다" style="ellipse;whiteSpace=wrap;html=1;" vertex="1" parent="1">
          <mxGeometry x="400" y="3063.07" width="90" height="53.37" as="geometry" />
        </mxCell>
        <mxCell id="MgbEQDitMIPxZw4n5yvV-38" value="" style="edgeStyle=orthogonalEdgeStyle;rounded=0;orthogonalLoop=1;jettySize=auto;html=1;" edge="1" parent="1" source="MgbEQDitMIPxZw4n5yvV-39" target="MgbEQDitMIPxZw4n5yvV-41">
          <mxGeometry relative="1" as="geometry" />
        </mxCell>
        <mxCell id="MgbEQDitMIPxZw4n5yvV-39" value="개 주인에게&amp;nbsp;&lt;br&gt;말을 건다" style="ellipse;whiteSpace=wrap;html=1;" vertex="1" parent="1">
          <mxGeometry x="520" y="3063.07" width="90" height="53.37" as="geometry" />
        </mxCell>
        <mxCell id="MgbEQDitMIPxZw4n5yvV-40" value="개한테 인사한다" style="ellipse;whiteSpace=wrap;html=1;" vertex="1" parent="1">
          <mxGeometry x="641.5" y="3010" width="100" height="50" as="geometry" />
        </mxCell>
        <mxCell id="MgbEQDitMIPxZw4n5yvV-41" value="개 사진 찍는다" style="ellipse;whiteSpace=wrap;html=1;" vertex="1" parent="1">
          <mxGeometry x="641.5" y="3071.5" width="100" height="37.5" as="geometry" />
        </mxCell>
        <mxCell id="MgbEQDitMIPxZw4n5yvV-42" value="개 주인과 잠깐 &lt;br&gt;같이 걷는다" style="ellipse;whiteSpace=wrap;html=1;" vertex="1" parent="1">
          <mxGeometry x="626" y="3116.44" width="115.5" height="53.37" as="geometry" />
        </mxCell>
        <mxCell id="MgbEQDitMIPxZw4n5yvV-43" value="" style="endArrow=classic;html=1;rounded=0;exitX=1;exitY=0;exitDx=0;exitDy=0;" edge="1" parent="1" source="MgbEQDitMIPxZw4n5yvV-39">
          <mxGeometry width="50" height="50" relative="1" as="geometry">
            <mxPoint x="591.5" y="3090" as="sourcePoint" />
            <mxPoint x="641.5" y="3040" as="targetPoint" />
          </mxGeometry>
        </mxCell>
        <mxCell id="MgbEQDitMIPxZw4n5yvV-44" value="" style="endArrow=classic;html=1;rounded=0;" edge="1" parent="1">
          <mxGeometry width="50" height="50" relative="1" as="geometry">
            <mxPoint x="596.5" y="3109" as="sourcePoint" />
            <mxPoint x="626.5" y="3139" as="targetPoint" />
          </mxGeometry>
        </mxCell>
        <mxCell id="MgbEQDitMIPxZw4n5yvV-45" value="인터벌로 뛴다" style="ellipse;whiteSpace=wrap;html=1;" vertex="1" parent="1">
          <mxGeometry x="524.5" y="2970" width="90" height="50" as="geometry" />
        </mxCell>
        <mxCell id="MgbEQDitMIPxZw4n5yvV-46" value="&amp;lt;&amp;lt;extend&amp;gt;&amp;gt;" style="html=1;verticalAlign=bottom;labelBackgroundColor=none;endArrow=open;endFill=0;dashed=1;rounded=0;entryX=0.5;entryY=1;entryDx=0;entryDy=0;" edge="1" parent="1" source="MgbEQDitMIPxZw4n5yvV-45" target="MgbEQDitMIPxZw4n5yvV-4">
          <mxGeometry x="-0.4991" y="1" width="160" relative="1" as="geometry">
            <mxPoint x="618.3799999999995" y="2855.5" as="sourcePoint" />
            <mxPoint x="589" y="2930" as="targetPoint" />
            <mxPoint y="1" as="offset" />
          </mxGeometry>
        </mxCell>
        <mxCell id="MgbEQDitMIPxZw4n5yvV-47" value="" style="endArrow=none;html=1;rounded=0;entryX=0.021;entryY=0.661;entryDx=0;entryDy=0;entryPerimeter=0;exitX=0.664;exitY=0.02;exitDx=0;exitDy=0;exitPerimeter=0;" edge="1" parent="1" source="MgbEQDitMIPxZw4n5yvV-2" target="MgbEQDitMIPxZw4n5yvV-6">
          <mxGeometry width="50" height="50" relative="1" as="geometry">
            <mxPoint x="320" y="2970" as="sourcePoint" />
            <mxPoint x="410" y="2920" as="targetPoint" />
          </mxGeometry>
        </mxCell>
        <mxCell id="MgbEQDitMIPxZw4n5yvV-48" value="" style="endArrow=none;html=1;rounded=0;entryX=0;entryY=0.491;entryDx=0;entryDy=0;entryPerimeter=0;" edge="1" parent="1">
          <mxGeometry width="50" height="50" relative="1" as="geometry">
            <mxPoint x="359" y="3087.48" as="sourcePoint" />
            <mxPoint x="400" y="3087.5046700000003" as="targetPoint" />
            <Array as="points">
              <mxPoint x="370" y="3087.48" />
            </Array>
          </mxGeometry>
        </mxCell>
        <mxCell id="MgbEQDitMIPxZw4n5yvV-49" value="" style="endArrow=none;html=1;rounded=0;entryX=0;entryY=0.5;entryDx=0;entryDy=0;exitX=0.614;exitY=0.999;exitDx=0;exitDy=0;exitPerimeter=0;" edge="1" parent="1" source="MgbEQDitMIPxZw4n5yvV-2" target="MgbEQDitMIPxZw4n5yvV-18">
          <mxGeometry width="50" height="50" relative="1" as="geometry">
            <mxPoint x="310" y="3133.82" as="sourcePoint" />
            <mxPoint x="400" y="3223.82" as="targetPoint" />
          </mxGeometry>
        </mxCell>
        <mxCell id="MgbEQDitMIPxZw4n5yvV-50" value="" style="endArrow=none;html=1;rounded=0;" edge="1" parent="1">
          <mxGeometry width="50" height="50" relative="1" as="geometry">
            <mxPoint x="190" y="3180" as="sourcePoint" />
            <mxPoint x="261" y="3093" as="targetPoint" />
          </mxGeometry>
        </mxCell>
        <mxCell id="MgbEQDitMIPxZw4n5yvV-51" value="" style="endArrow=none;html=1;rounded=0;entryX=0.064;entryY=0.332;entryDx=0;entryDy=0;entryPerimeter=0;" edge="1" parent="1" target="MgbEQDitMIPxZw4n5yvV-31">
          <mxGeometry width="50" height="50" relative="1" as="geometry">
            <mxPoint x="190" y="3180" as="sourcePoint" />
            <mxPoint x="270" y="3250" as="targetPoint" />
          </mxGeometry>
        </mxCell>
        <mxCell id="MgbEQDitMIPxZw4n5yvV-52" value="공원으로 간다" style="ellipse;whiteSpace=wrap;html=1;" vertex="1" parent="1">
          <mxGeometry x="90" y="3150" width="106.25" height="50" as="geometry" />
        </mxCell>
        <mxCell id="MgbEQDitMIPxZw4n5yvV-53" value="나 ( = 혜진)&amp;nbsp;" style="shape=umlActor;verticalLabelPosition=bottom;verticalAlign=top;html=1;" vertex="1" parent="1">
          <mxGeometry x="10" y="3960" width="60" height="97.5" as="geometry" />
        </mxCell>
        <mxCell id="MgbEQDitMIPxZw4n5yvV-54" value="&lt;font style=&quot;font-size: 11px;&quot;&gt;산책한다&lt;br&gt;&lt;/font&gt;" style="ellipse;whiteSpace=wrap;html=1;" vertex="1" parent="1">
          <mxGeometry x="83.5" y="3943" width="100" height="50" as="geometry" />
        </mxCell>
        <mxCell id="MgbEQDitMIPxZw4n5yvV-55" value="" style="edgeStyle=orthogonalEdgeStyle;rounded=0;orthogonalLoop=1;jettySize=auto;html=1;" edge="1" parent="1" source="MgbEQDitMIPxZw4n5yvV-56" target="MgbEQDitMIPxZw4n5yvV-79">
          <mxGeometry relative="1" as="geometry" />
        </mxCell>
        <mxCell id="MgbEQDitMIPxZw4n5yvV-56" value="트랙을 걷는다" style="ellipse;whiteSpace=wrap;html=1;" vertex="1" parent="1">
          <mxGeometry x="344.5" y="3748.09" width="100" height="50" as="geometry" />
        </mxCell>
        <mxCell id="MgbEQDitMIPxZw4n5yvV-57" value="" style="edgeStyle=orthogonalEdgeStyle;rounded=0;orthogonalLoop=1;jettySize=auto;html=1;" edge="1" parent="1" source="MgbEQDitMIPxZw4n5yvV-58" target="MgbEQDitMIPxZw4n5yvV-56">
          <mxGeometry relative="1" as="geometry" />
        </mxCell>
        <mxCell id="MgbEQDitMIPxZw4n5yvV-58" value="트랙을 발견한다" style="ellipse;whiteSpace=wrap;html=1;" vertex="1" parent="1">
          <mxGeometry x="224.5" y="3748.09" width="100" height="50" as="geometry" />
        </mxCell>
        <mxCell id="MgbEQDitMIPxZw4n5yvV-59" value="빨리 걷는다" style="ellipse;whiteSpace=wrap;html=1;" vertex="1" parent="1">
          <mxGeometry x="285" y="3638.09" width="80" height="55" as="geometry" />
        </mxCell>
        <mxCell id="MgbEQDitMIPxZw4n5yvV-60" value="천천히 걷는다" style="ellipse;whiteSpace=wrap;html=1;" vertex="1" parent="1">
          <mxGeometry x="414" y="3638.09" width="90" height="50" as="geometry" />
        </mxCell>
        <mxCell id="MgbEQDitMIPxZw4n5yvV-61" value="&amp;lt;&amp;lt;extend&amp;gt;&amp;gt;" style="html=1;verticalAlign=bottom;labelBackgroundColor=none;endArrow=open;endFill=0;dashed=1;rounded=0;exitX=0.5;exitY=1;exitDx=0;exitDy=0;" edge="1" parent="1" source="MgbEQDitMIPxZw4n5yvV-59">
          <mxGeometry x="-0.1289" y="-4" width="160" relative="1" as="geometry">
            <mxPoint x="333.4200000000001" y="3688.085" as="sourcePoint" />
            <mxPoint x="366.5" y="3753.09" as="targetPoint" />
            <mxPoint as="offset" />
          </mxGeometry>
        </mxCell>
        <mxCell id="MgbEQDitMIPxZw4n5yvV-62" value="&amp;lt;&amp;lt;extend&amp;gt;&amp;gt;" style="html=1;verticalAlign=bottom;labelBackgroundColor=none;endArrow=open;endFill=0;dashed=1;rounded=0;entryX=0.78;entryY=0.06;entryDx=0;entryDy=0;entryPerimeter=0;" edge="1" parent="1">
          <mxGeometry width="160" relative="1" as="geometry">
            <mxPoint x="446" y="3688.09" as="sourcePoint" />
            <mxPoint x="422.5" y="3753.09" as="targetPoint" />
          </mxGeometry>
        </mxCell>
        <mxCell id="MgbEQDitMIPxZw4n5yvV-63" value="" style="edgeStyle=orthogonalEdgeStyle;rounded=0;orthogonalLoop=1;jettySize=auto;html=1;" edge="1" parent="1" source="MgbEQDitMIPxZw4n5yvV-64" target="MgbEQDitMIPxZw4n5yvV-66">
          <mxGeometry relative="1" as="geometry" />
        </mxCell>
        <mxCell id="MgbEQDitMIPxZw4n5yvV-64" value="벤치로 걸어간다" style="ellipse;whiteSpace=wrap;html=1;" vertex="1" parent="1">
          <mxGeometry x="586" y="3748.09" width="90" height="50" as="geometry" />
        </mxCell>
        <mxCell id="MgbEQDitMIPxZw4n5yvV-65" value="" style="edgeStyle=orthogonalEdgeStyle;rounded=0;orthogonalLoop=1;jettySize=auto;html=1;" edge="1" parent="1" source="MgbEQDitMIPxZw4n5yvV-66" target="MgbEQDitMIPxZw4n5yvV-87">
          <mxGeometry relative="1" as="geometry" />
        </mxCell>
        <mxCell id="MgbEQDitMIPxZw4n5yvV-66" value="벤치에서 잠깐 쉰다&lt;br&gt;의자에 앉는다&amp;nbsp;" style="ellipse;whiteSpace=wrap;html=1;" vertex="1" parent="1">
          <mxGeometry x="702" y="3737.09" width="110" height="70" as="geometry" />
        </mxCell>
        <mxCell id="MgbEQDitMIPxZw4n5yvV-67" value="" style="edgeStyle=orthogonalEdgeStyle;rounded=0;orthogonalLoop=1;jettySize=auto;html=1;" edge="1" parent="1" source="MgbEQDitMIPxZw4n5yvV-68" target="MgbEQDitMIPxZw4n5yvV-85">
          <mxGeometry relative="1" as="geometry" />
        </mxCell>
        <mxCell id="MgbEQDitMIPxZw4n5yvV-68" value="운동기구쪽로&lt;br&gt;걸어간다&amp;nbsp;" style="ellipse;whiteSpace=wrap;html=1;" vertex="1" parent="1">
          <mxGeometry x="376" y="4110" width="90" height="50" as="geometry" />
        </mxCell>
        <mxCell id="MgbEQDitMIPxZw4n5yvV-69" value="" style="edgeStyle=orthogonalEdgeStyle;rounded=0;orthogonalLoop=1;jettySize=auto;html=1;" edge="1" parent="1" source="MgbEQDitMIPxZw4n5yvV-70" target="MgbEQDitMIPxZw4n5yvV-71">
          <mxGeometry relative="1" as="geometry" />
        </mxCell>
        <mxCell id="MgbEQDitMIPxZw4n5yvV-70" value="이쁜 꽃을 발견한다" style="ellipse;whiteSpace=wrap;html=1;" vertex="1" parent="1">
          <mxGeometry x="206.25" y="4042" width="111.5" height="50" as="geometry" />
        </mxCell>
        <mxCell id="MgbEQDitMIPxZw4n5yvV-71" value="사진을 찍는다" style="ellipse;whiteSpace=wrap;html=1;" vertex="1" parent="1">
          <mxGeometry x="344.25" y="4042" width="80" height="50" as="geometry" />
        </mxCell>
        <mxCell id="MgbEQDitMIPxZw4n5yvV-72" style="edgeStyle=orthogonalEdgeStyle;rounded=0;orthogonalLoop=1;jettySize=auto;html=1;exitX=0.5;exitY=1;exitDx=0;exitDy=0;" edge="1" parent="1" source="MgbEQDitMIPxZw4n5yvV-56" target="MgbEQDitMIPxZw4n5yvV-56">
          <mxGeometry relative="1" as="geometry" />
        </mxCell>
        <mxCell id="MgbEQDitMIPxZw4n5yvV-73" value="" style="edgeStyle=orthogonalEdgeStyle;rounded=0;orthogonalLoop=1;jettySize=auto;html=1;" edge="1" parent="1" source="MgbEQDitMIPxZw4n5yvV-74" target="MgbEQDitMIPxZw4n5yvV-76">
          <mxGeometry relative="1" as="geometry" />
        </mxCell>
        <mxCell id="MgbEQDitMIPxZw4n5yvV-74" value="트랙을 다시 걷는다" style="ellipse;whiteSpace=wrap;html=1;" vertex="1" parent="1">
          <mxGeometry x="963" y="3747.09" width="111" height="50" as="geometry" />
        </mxCell>
        <mxCell id="MgbEQDitMIPxZw4n5yvV-75" value="" style="edgeStyle=orthogonalEdgeStyle;rounded=0;orthogonalLoop=1;jettySize=auto;html=1;" edge="1" parent="1">
          <mxGeometry relative="1" as="geometry">
            <mxPoint x="1182.9999600475435" y="3772.124482758621" as="sourcePoint" />
            <mxPoint x="1202" y="3772.09" as="targetPoint" />
          </mxGeometry>
        </mxCell>
        <mxCell id="MgbEQDitMIPxZw4n5yvV-76" value="시계를 본다" style="ellipse;whiteSpace=wrap;html=1;" vertex="1" parent="1">
          <mxGeometry x="1098" y="3747.09" width="84" height="50" as="geometry" />
        </mxCell>
        <mxCell id="MgbEQDitMIPxZw4n5yvV-77" value="산책을 종료한다" style="ellipse;whiteSpace=wrap;html=1;" vertex="1" parent="1">
          <mxGeometry x="1202" y="3747.09" width="100" height="50" as="geometry" />
        </mxCell>
        <mxCell id="MgbEQDitMIPxZw4n5yvV-78" value="" style="edgeStyle=orthogonalEdgeStyle;rounded=0;orthogonalLoop=1;jettySize=auto;html=1;" edge="1" parent="1" source="MgbEQDitMIPxZw4n5yvV-79" target="MgbEQDitMIPxZw4n5yvV-64">
          <mxGeometry relative="1" as="geometry" />
        </mxCell>
        <mxCell id="MgbEQDitMIPxZw4n5yvV-79" value="힘들다고 느낀다" style="ellipse;whiteSpace=wrap;html=1;fillColor=#ffe6cc;strokeColor=#d79b00;" vertex="1" parent="1">
          <mxGeometry x="466" y="3748.09" width="100" height="50" as="geometry" />
        </mxCell>
        <mxCell id="MgbEQDitMIPxZw4n5yvV-80" value="" style="edgeStyle=orthogonalEdgeStyle;rounded=0;orthogonalLoop=1;jettySize=auto;html=1;" edge="1" parent="1">
          <mxGeometry relative="1" as="geometry">
            <mxPoint x="345.99993816881715" y="4135.0344827586205" as="sourcePoint" />
            <mxPoint x="376" y="4135" as="targetPoint" />
          </mxGeometry>
        </mxCell>
        <mxCell id="MgbEQDitMIPxZw4n5yvV-81" value="운동기구를 찾는다" style="ellipse;whiteSpace=wrap;html=1;" vertex="1" parent="1">
          <mxGeometry x="223" y="4110" width="130" height="50" as="geometry" />
        </mxCell>
        <mxCell id="MgbEQDitMIPxZw4n5yvV-82" value="" style="edgeStyle=orthogonalEdgeStyle;rounded=0;orthogonalLoop=1;jettySize=auto;html=1;" edge="1" parent="1">
          <mxGeometry relative="1" as="geometry">
            <mxPoint x="192.99996195004132" y="4134.504482758621" as="sourcePoint" />
            <mxPoint x="223.00006183118285" y="4134.504482758621" as="targetPoint" />
          </mxGeometry>
        </mxCell>
        <mxCell id="MgbEQDitMIPxZw4n5yvV-83" value="운동한다&amp;nbsp;" style="ellipse;whiteSpace=wrap;html=1;" vertex="1" parent="1">
          <mxGeometry x="83.5" y="4110" width="106.25" height="50" as="geometry" />
        </mxCell>
        <mxCell id="MgbEQDitMIPxZw4n5yvV-84" value="&lt;span style=&quot;color: rgb(255, 41, 8); font-family: Helvetica; font-size: 12px; font-style: normal; font-variant-ligatures: normal; font-variant-caps: normal; font-weight: 400; letter-spacing: normal; orphans: 2; text-align: left; text-indent: 0px; text-transform: none; widows: 2; word-spacing: 0px; -webkit-text-stroke-width: 0px; background-color: rgb(251, 251, 251); text-decoration-thickness: initial; text-decoration-style: initial; text-decoration-color: initial; float: none; display: inline !important;&quot;&gt;&amp;nbsp; &amp;nbsp; 주제&amp;nbsp; :&amp;nbsp; 천호공원에서 산책하고 운동한다&lt;/span&gt;" style="text;whiteSpace=wrap;html=1;fillColor=#f5f5f5;fontColor=#333333;strokeColor=#666666;" vertex="1" parent="1">
          <mxGeometry y="3507" width="280" height="25" as="geometry" />
        </mxCell>
        <mxCell id="MgbEQDitMIPxZw4n5yvV-85" value="운동기구로&lt;br&gt;운동한다" style="ellipse;whiteSpace=wrap;html=1;" vertex="1" parent="1">
          <mxGeometry x="496.5" y="4110" width="90" height="50" as="geometry" />
        </mxCell>
        <mxCell id="MgbEQDitMIPxZw4n5yvV-86" value="" style="edgeStyle=orthogonalEdgeStyle;rounded=0;orthogonalLoop=1;jettySize=auto;html=1;" edge="1" parent="1" source="MgbEQDitMIPxZw4n5yvV-87" target="MgbEQDitMIPxZw4n5yvV-74">
          <mxGeometry relative="1" as="geometry" />
        </mxCell>
        <mxCell id="MgbEQDitMIPxZw4n5yvV-87" value="의자에서 일어난다" style="ellipse;whiteSpace=wrap;html=1;" vertex="1" parent="1">
          <mxGeometry x="832" y="3747.09" width="111" height="50" as="geometry" />
        </mxCell>
        <mxCell id="MgbEQDitMIPxZw4n5yvV-88" value="" style="edgeStyle=orthogonalEdgeStyle;rounded=0;orthogonalLoop=1;jettySize=auto;html=1;" edge="1" parent="1" source="MgbEQDitMIPxZw4n5yvV-89" target="MgbEQDitMIPxZw4n5yvV-91">
          <mxGeometry relative="1" as="geometry" />
        </mxCell>
        <mxCell id="MgbEQDitMIPxZw4n5yvV-89" value="개를 발견한다" style="ellipse;whiteSpace=wrap;html=1;" vertex="1" parent="1">
          <mxGeometry x="224.5" y="3941.1600000000003" width="90" height="53.37" as="geometry" />
        </mxCell>
        <mxCell id="MgbEQDitMIPxZw4n5yvV-90" value="" style="edgeStyle=orthogonalEdgeStyle;rounded=0;orthogonalLoop=1;jettySize=auto;html=1;" edge="1" parent="1" source="MgbEQDitMIPxZw4n5yvV-91" target="MgbEQDitMIPxZw4n5yvV-93">
          <mxGeometry relative="1" as="geometry" />
        </mxCell>
        <mxCell id="MgbEQDitMIPxZw4n5yvV-91" value="개 주인에게&amp;nbsp;&lt;br&gt;말을 건다" style="ellipse;whiteSpace=wrap;html=1;" vertex="1" parent="1">
          <mxGeometry x="344.5" y="3941.1600000000003" width="90" height="53.37" as="geometry" />
        </mxCell>
        <mxCell id="MgbEQDitMIPxZw4n5yvV-92" value="개한테 인사한다" style="ellipse;whiteSpace=wrap;html=1;" vertex="1" parent="1">
          <mxGeometry x="466" y="3888.09" width="100" height="50" as="geometry" />
        </mxCell>
        <mxCell id="MgbEQDitMIPxZw4n5yvV-93" value="개 사진 찍는다" style="ellipse;whiteSpace=wrap;html=1;" vertex="1" parent="1">
          <mxGeometry x="466" y="3949.59" width="100" height="37.5" as="geometry" />
        </mxCell>
        <mxCell id="MgbEQDitMIPxZw4n5yvV-94" value="개 주인과 잠깐 &lt;br&gt;같이 걷는다" style="ellipse;whiteSpace=wrap;html=1;" vertex="1" parent="1">
          <mxGeometry x="450.5" y="3994.53" width="115.5" height="53.37" as="geometry" />
        </mxCell>
        <mxCell id="MgbEQDitMIPxZw4n5yvV-95" value="" style="endArrow=classic;html=1;rounded=0;exitX=1;exitY=0;exitDx=0;exitDy=0;" edge="1" parent="1" source="MgbEQDitMIPxZw4n5yvV-91">
          <mxGeometry width="50" height="50" relative="1" as="geometry">
            <mxPoint x="416" y="3968.09" as="sourcePoint" />
            <mxPoint x="466" y="3918.09" as="targetPoint" />
          </mxGeometry>
        </mxCell>
        <mxCell id="MgbEQDitMIPxZw4n5yvV-96" value="" style="endArrow=classic;html=1;rounded=0;" edge="1" parent="1">
          <mxGeometry width="50" height="50" relative="1" as="geometry">
            <mxPoint x="421" y="3987.09" as="sourcePoint" />
            <mxPoint x="451" y="4017.09" as="targetPoint" />
          </mxGeometry>
        </mxCell>
        <mxCell id="MgbEQDitMIPxZw4n5yvV-97" value="인터벌로 뛴다" style="ellipse;whiteSpace=wrap;html=1;" vertex="1" parent="1">
          <mxGeometry x="350.5" y="3838.09" width="90" height="50" as="geometry" />
        </mxCell>
        <mxCell id="MgbEQDitMIPxZw4n5yvV-98" value="&amp;lt;&amp;lt;extend&amp;gt;&amp;gt;" style="html=1;verticalAlign=bottom;labelBackgroundColor=none;endArrow=open;endFill=0;dashed=1;rounded=0;entryX=0.5;entryY=1;entryDx=0;entryDy=0;" edge="1" parent="1" source="MgbEQDitMIPxZw4n5yvV-97" target="MgbEQDitMIPxZw4n5yvV-56">
          <mxGeometry x="-0.4991" y="1" width="160" relative="1" as="geometry">
            <mxPoint x="444.37999999999954" y="3723.59" as="sourcePoint" />
            <mxPoint x="415" y="3798.09" as="targetPoint" />
            <mxPoint y="1" as="offset" />
          </mxGeometry>
        </mxCell>
        <mxCell id="MgbEQDitMIPxZw4n5yvV-99" value="" style="endArrow=none;html=1;rounded=0;entryX=0.021;entryY=0.661;entryDx=0;entryDy=0;entryPerimeter=0;exitX=0.664;exitY=0.02;exitDx=0;exitDy=0;exitPerimeter=0;" edge="1" parent="1" source="MgbEQDitMIPxZw4n5yvV-54" target="MgbEQDitMIPxZw4n5yvV-58">
          <mxGeometry width="50" height="50" relative="1" as="geometry">
            <mxPoint x="293" y="3820" as="sourcePoint" />
            <mxPoint x="383" y="3770" as="targetPoint" />
          </mxGeometry>
        </mxCell>
        <mxCell id="MgbEQDitMIPxZw4n5yvV-100" value="" style="endArrow=none;html=1;rounded=0;entryX=0;entryY=0.491;entryDx=0;entryDy=0;entryPerimeter=0;" edge="1" parent="1">
          <mxGeometry width="50" height="50" relative="1" as="geometry">
            <mxPoint x="183.5" y="3965.57" as="sourcePoint" />
            <mxPoint x="224.5" y="3965.5946700000004" as="targetPoint" />
            <Array as="points">
              <mxPoint x="194.5" y="3965.57" />
            </Array>
          </mxGeometry>
        </mxCell>
        <mxCell id="MgbEQDitMIPxZw4n5yvV-101" value="" style="endArrow=none;html=1;rounded=0;entryX=0;entryY=0.5;entryDx=0;entryDy=0;exitX=0.614;exitY=0.999;exitDx=0;exitDy=0;exitPerimeter=0;" edge="1" parent="1" source="MgbEQDitMIPxZw4n5yvV-54" target="MgbEQDitMIPxZw4n5yvV-70">
          <mxGeometry width="50" height="50" relative="1" as="geometry">
            <mxPoint x="283" y="3983.82" as="sourcePoint" />
            <mxPoint x="373" y="4073.82" as="targetPoint" />
          </mxGeometry>
        </mxCell>
      </root>
    </mxGraphModel>
  </diagram>
</mxfile>
